<svg xmlns="http://www.w3.org/2000/svg" version="1.1" xmlns:xlink="http://www.w3.org/1999/xlink" xmlns:svgjs="http://svgjs.dev/svgjs" width="1440" height="250" preserveAspectRatio="none" viewBox="0 0 1440 250"><g mask="url(&quot;#SvgjsMask1000&quot;)" fill="none"><rect width="1440" height="250" x="0" y="0" fill="rgba(15, 41, 68, 1)"></rect><path d="M36 250L286 0L386.5 0L136.5 250z" fill="url(&quot;#SvgjsLinearGradient1001&quot;)"></path><path d="M277.6 250L527.6 0L806.6 0L556.6 250z" fill="url(&quot;#SvgjsLinearGradient1001&quot;)"></path><path d="M494.20000000000005 250L744.2 0L897.2 0L647.2 250z" fill="url(&quot;#SvgjsLinearGradient1001&quot;)"></path><path d="M759.8000000000001 250L1009.8000000000001 0L1093.8000000000002 0L843.8000000000001 250z" fill="url(&quot;#SvgjsLinearGradient1001&quot;)"></path><path d="M1413 250L1163 0L872 0L1122 250z" fill="url(&quot;#SvgjsLinearGradient1002&quot;)"></path><path d="M1155.4 250L905.4000000000001 0L560.4000000000001 0L810.4000000000001 250z" fill="url(&quot;#SvgjsLinearGradient1002&quot;)"></path><path d="M917.8 250L667.8 0L571.8 0L821.8 250z" fill="url(&quot;#SvgjsLinearGradient1002&quot;)"></path><path d="M685.1999999999999 250L435.19999999999993 0L205.69999999999993 0L455.69999999999993 250z" fill="url(&quot;#SvgjsLinearGradient1002&quot;)"></path><path d="M1207.1086996967729 250L1440 17.108699696772845L1440 250z" fill="url(&quot;#SvgjsLinearGradient1001&quot;)"></path><path d="M0 250L232.89130030322715 250L 0 17.108699696772845z" fill="url(&quot;#SvgjsLinearGradient1002&quot;)"></path></g><defs><mask id="SvgjsMask1000"><rect width="1440" height="250" fill="#ffffff"></rect></mask><linearGradient x1="0%" y1="100%" x2="100%" y2="0%" id="SvgjsLinearGradient1001"><stop stop-color="rgba(15, 70, 185, 0.2)" offset="0"></stop><stop stop-opacity="0" stop-color="rgba(15, 70, 185, 0.2)" offset="0.66"></stop></linearGradient><linearGradient x1="100%" y1="100%" x2="0%" y2="0%" id="SvgjsLinearGradient1002"><stop stop-color="rgba(15, 70, 185, 0.2)" offset="0"></stop><stop stop-opacity="0" stop-color="rgba(15, 70, 185, 0.2)" offset="0.66"></stop></linearGradient></defs></svg>